<svg width="1309" height="1000" viewBox="0 0 1309 1000" fill="none" xmlns="http://www.w3.org/2000/svg">
<rect x="594" width="121" height="1000" rx="50" fill="url(#paint0_linear_52_13)"/>
<rect x="792" y="125" width="121" height="750" rx="50" fill="url(#paint1_linear_52_13)"/>
<rect x="990" y="250" width="121" height="500" rx="50" fill="url(#paint2_linear_52_13)"/>
<rect x="1188" y="375" width="121" height="250" rx="50" fill="url(#paint3_linear_52_13)"/>
<rect y="375" width="121" height="250" rx="50" fill="url(#paint4_linear_52_13)"/>
<rect x="198" y="250" width="121" height="500" rx="50" fill="url(#paint5_linear_52_13)"/>
<rect x="396" y="125" width="121" height="750" rx="50" fill="url(#paint6_linear_52_13)"/>
<defs>
<linearGradient id="paint0_linear_52_13" x1="715" y1="-59.5638" x2="629.619" y2="1023.36" gradientUnits="userSpaceOnUse">
<stop stop-color="#6366F1"/>
<stop offset="1" stop-color="#D946EF"/>
</linearGradient>
<linearGradient id="paint1_linear_52_13" x1="913" y1="80.3272" x2="864.843" y2="894.723" gradientUnits="userSpaceOnUse">
<stop stop-color="#6366F1"/>
<stop offset="1" stop-color="#D946EF"/>
</linearGradient>
<linearGradient id="paint2_linear_52_13" x1="1111" y1="220.218" x2="1089.56" y2="764.201" gradientUnits="userSpaceOnUse">
<stop stop-color="#6366F1"/>
<stop offset="1" stop-color="#D946EF"/>
</linearGradient>
<linearGradient id="paint3_linear_52_13" x1="1309" y1="360.109" x2="1303.63" y2="632.418" gradientUnits="userSpaceOnUse">
<stop stop-color="#6366F1"/>
<stop offset="1" stop-color="#D946EF"/>
</linearGradient>
<linearGradient id="paint4_linear_52_13" x1="121" y1="360.109" x2="115.633" y2="632.418" gradientUnits="userSpaceOnUse">
<stop stop-color="#6366F1"/>
<stop offset="1" stop-color="#D946EF"/>
</linearGradient>
<linearGradient id="paint5_linear_52_13" x1="319" y1="220.218" x2="297.555" y2="764.201" gradientUnits="userSpaceOnUse">
<stop stop-color="#6366F1"/>
<stop offset="1" stop-color="#D946EF"/>
</linearGradient>
<linearGradient id="paint6_linear_52_13" x1="517" y1="80.3272" x2="468.843" y2="894.723" gradientUnits="userSpaceOnUse">
<stop stop-color="#6366F1"/>
<stop offset="1" stop-color="#D946EF"/>
</linearGradient>
</defs>
</svg>
